<?xml version="1.0" encoding="UTF-8"?>
<svg id="katman_1" data-name="katman 1" xmlns="http://www.w3.org/2000/svg" version="1.1" viewBox="0 0 200.4 66.5">
  <defs>
    <style>
      .cls-1 {
        fill: #fff;
        stroke-width: 0px;
      }
    </style>
  </defs>
  <g>
    <path class="cls-1" d="M36.4,21.6c1.2-1.5,2-3.5,1.8-5.5-1.7,0-3.8,1.1-5.1,2.6-1.1,1.3-2.1,3.3-1.8,5.3,1.9.2,3.9-1,5.1-2.4"/>
    <path class="cls-1" d="M38.2,24.4c-2.8-.2-5.2,1.6-6.6,1.6s-3.4-1.5-5.6-1.5-5.6,1.7-7.1,4.3c-3,5.2-.8,13,2.1,17.2,1.4,2.1,3.2,4.4,5.4,4.3,2.1,0,3-1.4,5.6-1.4s3.4,1.4,5.6,1.3c2.4,0,3.8-2.1,5.3-4.2,1.6-2.4,2.3-4.7,2.4-4.8,0,0-4.5-1.8-4.6-7,0-4.3,3.5-6.4,3.7-6.5-2-3-5.2-3.3-6.3-3.4"/>
  </g>
  <path class="cls-1" d="M54.5,27.2h4.8v22.9h-4.8v-22.9h0ZM54.1,21.1c0-1.5,1.2-2.7,2.7-2.7s2.8,1.2,2.8,2.7-1.2,2.7-2.8,2.7-2.7-1.2-2.7-2.7h0Z"/>
  <path class="cls-1" d="M69.6,35.2h5.6c4.3,0,6.7-2.3,6.7-6.3s-2.4-6.3-6.7-6.3h-5.7v12.5h0ZM76.5,18.5c6.1,0,10.4,4.2,10.4,10.4s-4.4,10.4-10.6,10.4h-6.8v10.8h-4.9v-31.6s11.9,0,11.9,0Z"/>
  <path class="cls-1" d="M90.2,18.5h4.7v12.6h0c1.4-2.7,3.7-4.2,7.2-4.2,5.1,0,8.1,3.4,8.1,8.6v14.6h-4.8v-13.7c0-3.4-1.7-5.4-5-5.4s-5.6,2.4-5.6,6v13.1h-4.8v-31.6h.2Z"/>
  <path class="cls-1" d="M130.7,38.6c0-4.9-2.3-7.8-6.1-7.8s-6.1,2.9-6.1,7.8,2.3,7.9,6.1,7.9,6.1-2.9,6.1-7.9h0ZM113.7,38.6c0-7.2,4.3-11.7,10.9-11.7s10.9,4.5,10.9,11.7-4.2,11.8-10.9,11.8-10.9-4.5-10.9-11.8h0Z"/>
  <path class="cls-1" d="M138.8,27.2h4.5v3.9h0c1.4-2.7,3.7-4.2,7.2-4.2,5.1,0,8,3.2,8,8.5v14.7h-4.7v-13.8c0-3.4-1.6-5.3-4.9-5.3s-5.5,2.4-5.5,5.9v13.2h-4.7v-22.9h0Z"/>
  <path class="cls-1" d="M166.8,36.5h11.4c0-3.5-2.3-5.8-5.6-5.8s-5.6,2.4-5.8,5.8h0ZM182.7,43.4c-.6,4.2-4.7,7-9.9,7s-10.8-4.5-10.8-11.7,4.2-11.8,10.6-11.8,10.3,4.4,10.3,11.3v1.6h-16.2v.3c0,3.9,2.5,6.5,6.2,6.5s4.7-1.2,5.3-3.2h4.5,0Z"/>
</svg>