<?xml version="1.0" encoding="UTF-8"?>
<svg id="katman_1" data-name="katman 1" xmlns="http://www.w3.org/2000/svg" version="1.1" viewBox="0 0 200.4 66.5">
  <defs>
    <style>
      .cls-1 {
        fill: #fff;
        stroke-width: 0px;
      }
    </style>
  </defs>
  <g id="layer1">
    <path id="path1460" class="cls-1" d="M54.7,34V12.8h6.6v2.8s.4-.3.9-.6c5.9-3.7,14.4-4.8,22-2.9,6.9,1.7,11.9,5.8,13.7,11.2,1,3.2,1,6.7-.2,9.7-1.4,3.8-4.3,6.8-8.5,8.9-3.7,1.8-7.9,2.7-12.6,2.7s-7.5-.6-10.7-1.9c-1.3-.5-2.9-1.3-3.9-2l-.8-.5v14.9h-6.6v-21.3.2ZM79.9,39.1c3.7-.5,6.6-1.7,8.8-3.6,1.6-1.4,2.8-3.4,3.2-5.6.2-.9.2-3,0-3.9-.5-2.5-2-4.8-4.2-6.3-.9-.6-2.7-1.5-3.8-1.9-3.2-1.1-7.1-1.4-10.7-.9-6.2.9-10.4,4-11.6,8.5-.5,2-.4,4.1.2,6,1.5,4.2,5.9,7.1,12.1,7.8,1.3,0,4.7,0,5.9,0h0ZM101.9,34V12.8h6.6v2.8s.4-.2.8-.5c1-.6,2.9-1.6,4.2-2.1,5.4-2,12-2.3,17.8-.9,9.4,2.4,15,8.9,14.5,16.9-.4,6.1-4.5,11.2-11.2,13.8-2.2.9-4.4,1.4-7.2,1.8-1.5.2-5.5.2-7,0-4.4-.5-8.2-1.8-11.2-3.8l-.6-.4v14.9h-6.6v-21.3h-.1ZM127.2,39.1c5.2-.8,8.8-2.9,10.7-6.1,1.1-1.9,1.5-4.4,1.1-6.8-.9-4.9-5.1-8.3-11.7-9.2-4.3-.6-9.2,0-12.6,1.6-3.4,1.7-5.4,4.1-6.1,7.5-.2.9-.2,3.1,0,4,.5,2.3,1.6,4.2,3.3,5.6,2.3,2,5.4,3.1,9.3,3.6,1.3,0,4.7,0,6,0h0ZM27.3,44.7c-3.5-.3-6.5-1-9.1-2.1-5.8-2.5-9.5-6.7-10.5-11.9-.2-1-.3-3.3,0-4.4.7-6.3,5.4-11.3,12.8-13.7,3.9-1.3,8.8-1.7,13.1-1.1,7.9,1,14,4.7,16.6,10.2,2.2,4.5,1.9,9.9-.7,14-1.2,1.9-3.1,3.8-5.1,5.1-3.1,2-6.7,3.3-11.2,3.8-.9,0-5,.2-5.8,0h0ZM32,39.2c3.5-.4,6.4-1.4,8.6-2.9,1.8-1.3,3.2-3.1,3.8-5.1.4-1.1.4-1.7.4-3.2s0-2.1-.4-3.2c-1.2-3.7-4.8-6.5-9.7-7.6-4.3-1-9.4-.6-13.2.9-2.7,1.1-4.8,2.8-6.1,5-1.3,2.3-1.6,5.4-.8,8.1.9,2.9,3.3,5.3,6.7,6.7,1.8.7,4,1.3,6.3,1.4h4.4ZM168.7,44.7c-.1,0-.6,0-1.1,0-3.7-.3-7.5-1.5-10.3-3.1-3.8-2.2-6.5-5.2-7.7-8.9-.8-2.5-1-5.3-.4-7.8.9-3.9,3.2-7.1,6.9-9.6,4.8-3.2,11.9-4.6,18.7-3.8,5.7.7,10.4,2.8,13.6,6,2.5,2.5,3.9,5.4,4.3,8.8.1.9,0,2.7,0,3.6-.9,6.8-6.3,11.9-14.5,14-2.5.6-4.1.8-7,.8h-2.6.1ZM173.1,39.2c4.4-.4,7.9-1.8,10.2-4.1,1.6-1.6,2.5-3.3,2.8-5.3.1-.9.1-2.6,0-3.5-.8-4.8-5-8.2-11.2-9.2-1.5-.2-2.5-.3-4-.3-7,0-12.4,2.6-14.4,7-.6,1.3-.9,2.7-.9,4.3s.5,3.8,1.6,5.5c2.1,3.1,6,5.1,11.2,5.6,1.1,0,3.7,0,4.8,0h-.1Z"/>
  </g>
</svg>