<?xml version="1.0" encoding="UTF-8"?>
<svg id="katman_1" data-name="katman 1" xmlns="http://www.w3.org/2000/svg" version="1.1" viewBox="0 0 200.4 66.5">
  <defs>
    <style>
      .cls-1 {
        fill: #fff;
        stroke-width: 0px;
      }
    </style>
  </defs>
  <path class="cls-1" d="M91.9,1.5c-5.7,0-10,4.8-10,13.9s8.9,20.9,16.8,34.1c0-34.1-.8-37.8-6.8-47.9ZM108.5,1.5c-6.1,10-6.8,13.9-6.8,47.9,7.9-13.2,16.8-28.3,16.8-34.1,0-9-4.3-13.9-10-13.9ZM72.5,12.5c-8.3,5.8-5.5,19.4-1.4,23.8,2.8,2.9,13.4,8,23.6,15l-22.2-38.8ZM127.9,12.5l-22.2,38.8c10.1-6.9,20.8-12.1,23.6-15,4.2-4.4,6.9-18-1.4-23.8ZM61.4,34.6c0,15.4,9.6,19.4,15.8,19.4h15.8l-31.6-19.4ZM139,34.6l-31.6,19.4h15.8c6.4,0,15.7-4,15.8-19.4ZM70,56.7c.8,4.6,2.9,8.3,8.6,8.3s11.4-3.3,14.4-8.3h-23ZM107.3,56.7c3,5,8.6,8.3,14.4,8.3s7.8-3.7,8.6-8.3h-23Z"/>
</svg>