<?xml version="1.0" encoding="UTF-8"?>
<svg id="katman_1" data-name="katman 1" xmlns="http://www.w3.org/2000/svg" version="1.1" viewBox="0 0 200.4 66.5">
  <defs>
    <style>
      .cls-1 {
        fill: #2641c1;
      }

      .cls-1, .cls-2 {
        stroke-width: 0px;
      }

      .cls-2 {
        fill: #fff;
      }
    </style>
  </defs>
  <path class="cls-2" d="M198.4,15.7c2.6,15.1-38.5,35-92,44.2-53.5,9.3-98.9,4.6-101.5-10.6C2.4,34.3,43.5,14.4,97,5.2c53.5-9.3,98.9-4.6,101.5,10.6h-.1Z"/>
  <polygon class="cls-1" points="148.1 38.2 147.8 22.4 152.8 22.4 152.8 42.2 145.8 42.2 140.8 26 140.7 26 140.9 42.2 136 42.2 136 22.4 143.4 22.4 148.1 38.2 148.1 38.2"/>
  <polygon class="cls-1" points="58.1 24.3 55.4 42.5 49.9 42.5 53.5 22.4 62.5 22.4 66.2 42.5 60.8 42.5 58.1 24.3 58.1 24.3"/>
  <polygon class="cls-1" points="81.4 37.8 83.9 22.4 92 22.4 92.4 42.5 87.4 42.5 87.3 24.5 87.2 24.5 83.9 42.5 78.8 42.5 75.4 24.5 75.3 24.5 75.2 42.5 70.2 42.5 70.6 22.4 78.8 22.4 81.3 37.8 81.4 37.8"/>
  <path class="cls-1" d="M41.4,36.9c.3.5,0,1.2,0,1.4,0,.7-.7,1.3-2,1.3s-2-.8-2-1.8v-2h-5.3v1.6c0,4.4,3.5,5.9,7.3,5.9s6.7-1.2,7-4.6c.3-1.7,0-2.9,0-3.3-.8-4.2-8.5-5.5-9-7.8v-1c0-.7.5-1.3,1.8-1.3s1.8.8,1.8,1.8v1.2h5v-1.4c0-4.3-3.9-5.1-6.8-5.1s-6.5,1.2-7,4.4c0,.9,0,1.7,0,2.7.9,4,8,5.2,9,7.8h0v.2Z"/>
  <path class="cls-1" d="M106.6,36.7c.3.5,0,1,0,1.4,0,.7-.7,1.3-2,1.3s-2-.8-2-1.8v-2h-5.3v1.6c0,4.4,3.5,5.7,7.2,5.7s6.5-1.2,7-4.6c.3-1.7,0-2.9,0-3.3-.8-4.2-8.3-5.3-8.9-7.7v-1c0-.7.5-1.3,1.8-1.3s1.8.7,1.8,1.8v1.2h5v-1.4c0-4.3-3.9-5-6.7-5s-6.4,1.2-6.9,4.4c0,.9,0,1.7,0,2.7.9,4,8,5.2,8.9,7.8v.2Z"/>
  <path class="cls-1" d="M123.4,39.5c1.4,0,1.8-.9,2-1.4v-15.7h5.1v15.7c-.4,3.8-3.3,5-7,5s-6.7-1.2-7-5v-15.7h5.1v15.7c0,.5.5,1.4,2,1.4h-.2Z"/>
  <path class="cls-1" d="M165.2,39.2c1.4,0,2-.9,2.1-1.4v-3.7h-2.1v-2.9h7v6.7c-.4,3.7-3.5,5-7,5s-6.7-1.3-7-5v-11.1c.4-3.8,3.5-5,7-5s6.7,1.2,7,5v2h-5.1v-2c0-.4-.5-1.4-2-1.4s-1.8.9-2,1.4v10.8c0,.5.5,1.4,2.1,1.4h-.1v.2Z"/>
</svg>