<?xml version="1.0" encoding="UTF-8"?>
<svg id="katman_1" data-name="katman 1" xmlns="http://www.w3.org/2000/svg" xmlns:xlink="http://www.w3.org/1999/xlink" version="1.1" viewBox="0 0 200.4 66.5">
  <defs>
    <style>
      .cls-1 {
        clip-path: url(#clippath);
      }

      .cls-2 {
        fill: none;
      }

      .cls-2, .cls-3 {
        stroke-width: 0px;
      }

      .cls-4 {
        clip-path: url(#clippath-1);
      }

      .cls-3 {
        fill: #fff;
        fill-rule: evenodd;
      }
    </style>
    <clipPath id="clippath">
      <rect class="cls-2" x="-146.3" y="-321.6" width="516" height="730.3"/>
    </clipPath>
    <clipPath id="clippath-1">
      <rect class="cls-2" x="-146.3" y="-321.6" width="516" height="730.3"/>
    </clipPath>
  </defs>
  <g class="cls-1">
    <g class="cls-4">
      <g>
        <path class="cls-3" d="M14.5,33.5h3.3l-2.9,6.1H4.3s-.9-.2-1.3-.9c-.4-.6-.2-1.1-.2-1.1l3.4-7.3s.5-1.1,1.6-1.6c1.2-.5,1.4-.5,2.1-.5h10.2l-1.1,2.5h-7.2s-1.2,0-1.8.3-.8.5-1.3,1.3c-.5.8-1.5,3.1-1.5,3.1,0,0-.4.8,0,1.2.4.3.7.3.7.3h4.7l1.9-3.6v.2Z"/>
        <path class="cls-3" d="M33.8,30.8l1.1-2.6h-10.1s-1.4.2-2.3.8c-.9.6-1.5,1.5-1.5,1.5l-3.3,6.9s-.3,1,.4,1.6c.6.5,1.1.6,1.1.6h10.5l1.1-2.5h-8.2s-.7-.2-.8-.7c0-.3.5-1.1.5-1.1h9.4l1.2-2.7h-9.5s.4-1.1,1.2-1.4c.7-.3,1.4-.3,1.4-.3h7.8Z"/>
        <polygon class="cls-3" points="31.7 39.6 35.2 39.6 38.1 33.3 41.2 39.6 44.9 39.6 50.1 28.3 46.5 28.3 43.7 34.5 40.4 28.3 36.9 28.3 31.7 39.6"/>
        <path class="cls-3" d="M96.6,28.3h3.6l-3.4,7.5s-.3.7,0,1,.6.4.6.4h8.3l-1.2,2.5h-10.4s-.8,0-1.3-.8c-.6-.7-.2-1.5,0-2s3.9-8.6,3.9-8.6"/>
        <path class="cls-3" d="M115.4,39.7h-3.6l4.1-8.9s.7-1.2,1.9-1.8c1.2-.6,1.6-.6,2.4-.7h10.6s1.3.1,1.7.9c.4.7,0,1.5-.3,2.2s-3.8,8.2-3.8,8.2h-3.4l3.2-6.9s.6-1.1,0-1.6c-.7-.5-2.2-.3-2.3-.2,0,.1-4,8.6-4,8.6h-3.5l3.9-8.6s-.9-.6-2.2,0c-1.3.6-1.2.9-1.5,1.5-.3.6-3.3,7.1-3.3,7.1"/>
        <polygon class="cls-3" points="165.6 28.3 168.9 28.3 163.7 39.6 160.3 39.6 165.6 28.3"/>
        <path class="cls-3" d="M170.9,28.3h3.5l-3.1,6.8s-.7,1-.3,1.6c.5.5.5.4.9.5h7.9l-1.2,2.4h-10.4s-1-.2-1.4-.9,0-1.4.3-2.2c.4-.8,3.7-8.2,3.7-8.2"/>
        <path class="cls-3" d="M63.7,30.8l1.1-2.6h-10.1s-1.4.2-2.3.8c-.9.6-1.5,1.5-1.5,1.5l-3.3,6.9s-.3,1,.4,1.6c.6.5,1.1.6,1.1.6h10.5l1.1-2.5h-8.2s-.7-.2-.8-.7c0-.3.5-1.1.5-1.1h9.4l1.2-2.7h-9.5s.4-1.1,1.2-1.4c.7-.3,1.4-.3,1.4-.3h7.8,0Z"/>
        <path class="cls-3" d="M197.5,30.8l1.1-2.6h-10.1s-1.4.2-2.3.8c-.9.6-1.5,1.5-1.5,1.5l-3.3,6.9s-.3,1,.4,1.6c.6.5,1.1.6,1.1.6h10.5l1.1-2.5h-8.2s-.7-.2-.8-.7c0-.3.5-1.1.5-1.1h9.4l1.2-2.7h-9.5s.4-1.1,1.2-1.4c.7-.3,1.4-.3,1.4-.3h7.8Z"/>
        <path class="cls-3" d="M69,31l-1,2.1h5.2s1.3,0,1.5-1-1-1.1-1-1.1c0,0-4.7,0-4.7,0ZM65,39.6h-3.4l5.2-11.3h9.9s1.7,0,1.9,1c.2,1.1-.2,2-.7,3.2s-1,1.9-2,2.5-2.3.9-2.7.9h-.4l2,3.8h-4l-1.8-3.8h-2.2l-1.7,3.8h-.1Z"/>
        <path class="cls-3" d="M83.2,32.6h6.3s.4-1.2-.3-1.5c-.7-.3-4.3-.1-4.3-.1,0,0-.5,0-.9.5-.3.4-.8,1.1-.8,1.1M80,39.6h-3.4l4.1-9s.5-.9,1.8-1.7c1.3-.7,2-.6,2-.6h7.4s1.3,0,1.7.8c.4.8,0,1.5-.2,2.1l-3.9,8.3h-3.3l2-4.3h-6.1l-2,4.3h0Z"/>
        <path class="cls-3" d="M137.5,31.9l-1.9,4.1s0,.5.5.8.6.3.6.3h3.3s.7,0,1.1-.5c.4-.5.7-.8.7-.8l1.7-3.8s0-.7-.5-.9c-.5-.2-.9-.2-1.6-.1-.7,0-2.3.1-2.3.1,0,0-.5,0-.9.2-.4.3-.7.6-.7.6M134.6,30.7s.6-1.4,2-1.8c1.2-.4,2-.6,2.8-.6h6.3s1.5.2,1.8,1,0,1.5-.3,2.2c-.3.7-2.6,5.4-2.6,5.4,0,0-.5,1.3-1.6,1.9-1.1.6-1.7.8-2.3.8h-7.7s-.8,0-1.5-.8c-.6-.7-.2-1.6.1-2.1s2.8-5.9,2.8-5.9"/>
        <path class="cls-3" d="M150.8,35.3l-.8,1.8h5c.4,0,.8,0,1.3-.4s.4-1.3.4-1.3h-5.9ZM151.8,32.6h5.9s.8-.9.7-1.3-.6-.4-.9-.4h-4.9l-.7,1.8h-.1ZM150.5,28.3h10.4s1.6.7,1.5,1.9c-.1,1.4-.6,2.1-.6,2.1,0,0-.8,1-1.5,1.4-.6.3-1.4.6-1.4.6,0,0,1,.4,1.2.7.2.4-.3,2-.8,2.7-.7.9-1.2,1.2-2.1,1.6-1,.4-1.4.3-2.3.3h-9.6l5.2-11.3h0Z"/>
      </g>
    </g>
  </g>
</svg>